<svg xmlns="http://www.w3.org/2000/svg" viewBox="0 0 840 1200" fill="none">
  <defs>
    <linearGradient id="signalStroke" x1="112" y1="136" x2="726" y2="1040" gradientUnits="userSpaceOnUse">
      <stop stop-color="#14A7A1" stop-opacity=".34"/>
      <stop offset=".54" stop-color="#8EB170" stop-opacity=".24"/>
      <stop offset="1" stop-color="#D0783F" stop-opacity=".3"/>
    </linearGradient>
  </defs>

  <g stroke="url(#signalStroke)" stroke-linecap="round" stroke-linejoin="round">
    <path d="M146 196C182 164 226 146 278 146C330 146 376 166 414 202" stroke-width="2.2"/>
    <path d="M190 250C214 228 244 216 278 216C312 216 342 228 366 250" stroke-width="1.8" opacity=".82"/>
    <circle cx="278" cy="280" r="10" fill="#13A49F" fill-opacity=".28" stroke-width="1.4"/>

    <path d="M466 186H694" stroke-width="1.8" stroke-dasharray="6 12"/>
    <path d="M466 236H632" stroke-width="1.8"/>
    <path d="M466 286H726" stroke-width="1.8" stroke-dasharray="6 12"/>
    <circle cx="512" cy="236" r="7" fill="#E09E4A" fill-opacity=".3" stroke-width="1.2"/>
    <circle cx="644" cy="236" r="7" fill="#16AAA4" fill-opacity=".3" stroke-width="1.2"/>

    <circle cx="244" cy="636" r="122" stroke-width="2"/>
    <circle cx="244" cy="636" r="80" stroke-width="1.6" opacity=".8"/>
    <circle cx="244" cy="636" r="34" stroke-width="1.2" opacity=".7"/>
    <path d="M244 514V758" stroke-width="1.4" stroke-dasharray="4 10" opacity=".8"/>
    <path d="M122 636H366" stroke-width="1.4" stroke-dasharray="4 10" opacity=".8"/>

    <path d="M454 564H726" stroke-width="1.8"/>
    <path d="M486 616H694" stroke-width="1.8" opacity=".86"/>
    <path d="M526 668H654" stroke-width="1.8" opacity=".74"/>
    <rect x="468" y="722" width="78" height="78" rx="18" stroke-width="1.8"/>
    <rect x="572" y="722" width="154" height="78" rx="18" stroke-width="1.8"/>

    <path d="M118 980C178 928 250 900 334 900C418 900 488 930 546 980" stroke-width="2"/>
    <path d="M194 1052C232 1022 278 1006 332 1006C386 1006 432 1022 470 1052" stroke-width="1.6" opacity=".82"/>
    <path d="M560 930L716 1086" stroke-width="1.8"/>
    <path d="M716 930L560 1086" stroke-width="1.8"/>
  </g>
</svg>
