<svg xmlns="http://www.w3.org/2000/svg" viewBox="0 0 520 1200" fill="none">
  <defs>
    <linearGradient id="timelineStroke" x1="88" y1="94" x2="426" y2="1034" gradientUnits="userSpaceOnUse">
      <stop stop-color="#129E9B" stop-opacity=".34"/>
      <stop offset=".48" stop-color="#93AD67" stop-opacity=".24"/>
      <stop offset="1" stop-color="#D97E40" stop-opacity=".28"/>
    </linearGradient>
    <linearGradient id="timelineFill" x1="134" y1="136" x2="384" y2="942" gradientUnits="userSpaceOnUse">
      <stop stop-color="#11A09C" stop-opacity=".18"/>
      <stop offset=".55" stop-color="#E1A34A" stop-opacity=".14"/>
      <stop offset="1" stop-color="#D26D3E" stop-opacity=".18"/>
    </linearGradient>
  </defs>

  <g stroke="url(#timelineStroke)" stroke-width="1.8" stroke-linecap="round" stroke-linejoin="round">
    <path d="M92 170H428"/>
    <path d="M92 530H428"/>
    <path d="M92 890H428"/>
    <path d="M168 170V530"/>
    <path d="M260 170V530"/>
    <path d="M352 170V530"/>
    <path d="M168 530V890"/>
    <path d="M260 530V890"/>
    <path d="M352 530V890"/>
  </g>

  <g fill="url(#timelineFill)">
    <rect x="108" y="196" width="44" height="108" rx="14"/>
    <rect x="182" y="236" width="62" height="150" rx="16"/>
    <rect x="274" y="210" width="54" height="184" rx="16"/>
    <rect x="358" y="262" width="42" height="118" rx="14"/>

    <rect x="116" y="574" width="48" height="122" rx="14"/>
    <rect x="196" y="612" width="52" height="166" rx="16"/>
    <rect x="278" y="558" width="62" height="214" rx="16"/>
    <rect x="370" y="620" width="34" height="102" rx="14"/>

    <rect x="122" y="936" width="42" height="116" rx="14"/>
    <rect x="188" y="974" width="58" height="150" rx="16"/>
    <rect x="274" y="918" width="70" height="212" rx="18"/>
  </g>

  <g opacity=".7">
    <circle cx="92" cy="170" r="7" fill="#12A19D" fill-opacity=".42"/>
    <circle cx="428" cy="170" r="7" fill="#D88C43" fill-opacity=".34"/>
    <circle cx="92" cy="530" r="7" fill="#12A19D" fill-opacity=".42"/>
    <circle cx="428" cy="530" r="7" fill="#D88C43" fill-opacity=".34"/>
    <circle cx="92" cy="890" r="7" fill="#12A19D" fill-opacity=".42"/>
    <circle cx="428" cy="890" r="7" fill="#D88C43" fill-opacity=".34"/>
  </g>
</svg>
